<!DOCTYPE svg PUBLIC "-//W3C//DTD SVG 1.1//EN" "http://www.w3.org/Graphics/SVG/1.1/DTD/svg11.dtd">
<!-- Uploaded to: SVG Repo, www.svgrepo.com, Transformed by: SVG Repo Mixer Tools -->
<svg fill="#ffffff" width="800px" height="800px" viewBox="0 0 100 100" xmlns="http://www.w3.org/2000/svg" stroke="#ffffff">
<g id="SVGRepo_bgCarrier" stroke-width="0"/>
<g id="SVGRepo_tracerCarrier" stroke-linecap="round" stroke-linejoin="round"/>
<g id="SVGRepo_iconCarrier"> <title/> <g data-name="Calque 2" id="Calque_2"> <path d="M21,95.89a1.49,1.49,0,0,0,1.08-.46l35.4-36.66h.28a6.71,6.71,0,0,0,4.85-2.05l6.08-6.3A6.75,6.75,0,0,0,59,41.05l-6.08,6.3a6.73,6.73,0,0,0-1.86,5.2L15.66,89.21a1.57,1.57,0,0,0-.42,1.07,1.54,1.54,0,0,0,.46,1L20,95.47A1.48,1.48,0,0,0,21,95.89ZM55.09,49.43l6.08-6.29a3.75,3.75,0,1,1,5.39,5.21l-6.08,6.29a3.75,3.75,0,1,1-5.39-5.21Zm-2,7.46a6.41,6.41,0,0,0,1.18.91L21,92.27l-2.13-2L52.15,55.75A6.76,6.76,0,0,0,53.1,56.89Z"/> <path d="M65.33,6.53a1.5,1.5,0,0,0-3,0c0,3.24-2.2,6.43-4.53,9.81-2.91,4.21-6.2,9-6.2,15.13a12.1,12.1,0,0,0,2.5,7.39A1.5,1.5,0,1,0,56.49,37a9.1,9.1,0,0,1-1.89-5.57c0-5.21,2.88-9.39,5.67-13.43a48.11,48.11,0,0,0,3.56-5.71A45.64,45.64,0,0,0,67.39,18c2.78,4,5.66,8.22,5.66,13.43A9.15,9.15,0,0,1,71.17,37a1.51,1.51,0,0,0,.28,2.11,1.53,1.53,0,0,0,.91.3,1.48,1.48,0,0,0,1.19-.59,12.07,12.07,0,0,0,2.5-7.39c0-6.15-3.29-10.92-6.19-15.13C67.53,13,65.33,9.77,65.33,6.53Z"/> </g> </g>
</svg>